<svg xmlns="http://www.w3.org/2000/svg" viewBox="0 0 582.3 116.08"><defs><style>.cls-1{fill:#dc006a;}.cls-2{fill:#002f5c;}.cls-3{fill:#de006a;}</style></defs><title>gildeopleidingen</title><g id="Laag_4" data-name="Laag 4"><path class="cls-1" d="M187.67,148.3H178V100.67h9.67v16.24a10.94,10.94,0,0,1,7.77-2.72c8.24,0,13.62,5.44,13.62,14.74V148.3h-9.74V129.69c0-3.8-1.77-6.52-5.52-6.52-4.09,0-6.13,2.85-6.13,8.5Z" transform="translate(-35.69 -32.97)"/><path class="cls-1" d="M245.16,134.1H222.54c.54,3.6,3.34,6.12,7.49,6.12a9.9,9.9,0,0,0,8.18-3.87l6.4,6a17.46,17.46,0,0,1-14.31,6.73,17.64,17.64,0,0,1-12.6-4.69c-3.34-3.19-5-7.34-5-12.5a17.91,17.91,0,0,1,4.57-12.64,15.41,15.41,0,0,1,11.85-5q7.66,0,11.85,5.09a18.32,18.32,0,0,1,4.22,12ZM223,127.65h12a5.39,5.39,0,0,0-5.65-5,6.07,6.07,0,0,0-6.34,5" transform="translate(-35.69 -32.97)"/><path class="cls-1" d="M250.67,136.55V123.91h-4.36V115h4.36V105.7h9.61V115h7.43v8.9h-7.43v11.48c0,3.19,1.43,4.08,4.43,4.08h2.86v8.83c-1.7.07-3.47.14-5.24.14-7.77,0-11.65-3.94-11.65-11.89" transform="translate(-35.69 -32.97)"/><path class="cls-1" d="M317.38,134.1H294.76c.54,3.6,3.34,6.12,7.49,6.12a9.9,9.9,0,0,0,8.18-3.87l6.4,6a17.46,17.46,0,0,1-14.31,6.73,17.64,17.64,0,0,1-12.6-4.69c-3.34-3.19-5-7.34-5-12.5a17.91,17.91,0,0,1,4.57-12.64,15.41,15.41,0,0,1,11.85-5q7.66,0,11.85,5.09a18.33,18.33,0,0,1,4.22,12Zm-22.14-6.45h12a5.39,5.39,0,0,0-5.65-5,6.07,6.07,0,0,0-6.34,5" transform="translate(-35.69 -32.97)"/><path class="cls-1" d="M352,142a17.48,17.48,0,0,1-14.65,7.07,17.12,17.12,0,0,1-12.6-5,17.86,17.86,0,0,1,0-24.87,17.39,17.39,0,0,1,12.6-5c5.31,0,9.95,2.24,14,6.66l-6.54,6.32c-2.11-2.58-4.5-3.87-7.09-3.87a8.36,8.36,0,0,0,0,16.71c2.93,0,5.52-1.43,7.77-4.35Z" transform="translate(-35.69 -32.97)"/><path class="cls-1" d="M364.73,148.3h-9.67V100.67h9.67v16.24a10.94,10.94,0,0,1,7.77-2.72c8.24,0,13.62,5.44,13.62,14.74V148.3h-9.74V129.69c0-3.8-1.77-6.52-5.52-6.52-4.09,0-6.13,2.85-6.13,8.5Z" transform="translate(-35.69 -32.97)"/><path class="cls-1" d="M392.66,136.55V123.91H388.3V115h4.36V105.7h9.61V115h7.43v8.9h-7.43v11.48c0,3.19,1.43,4.08,4.43,4.08h2.86v8.83c-1.7.07-3.47.14-5.25.14-7.77,0-11.65-3.94-11.65-11.89" transform="translate(-35.69 -32.97)"/><path class="cls-1" d="M444.64,134.1H422c.55,3.6,3.34,6.12,7.49,6.12a9.9,9.9,0,0,0,8.18-3.87l6.4,6a17.47,17.47,0,0,1-14.31,6.73,17.64,17.64,0,0,1-12.6-4.69c-3.34-3.19-5-7.34-5-12.5a17.91,17.91,0,0,1,4.57-12.64,15.41,15.41,0,0,1,11.85-5q7.66,0,11.85,5.09a18.32,18.32,0,0,1,4.22,12Zm-22.14-6.45h12a5.39,5.39,0,0,0-5.65-5,6.07,6.07,0,0,0-6.34,5" transform="translate(-35.69 -32.97)"/><polygon class="cls-1" points="455.3 82.04 460.82 101.94 465.52 82.04 475.88 82.04 466.48 115.33 455.92 115.33 449.92 94.81 443.93 115.33 433.37 115.33 423.96 82.04 434.32 82.04 439.09 101.94 444.54 82.04 455.3 82.04"/><path class="cls-1" d="M544.14,134.1H521.52c.55,3.6,3.34,6.12,7.49,6.12a9.9,9.9,0,0,0,8.18-3.87l6.4,6a17.47,17.47,0,0,1-14.31,6.73,17.64,17.64,0,0,1-12.6-4.69c-3.34-3.19-5-7.34-5-12.5a17.91,17.91,0,0,1,4.57-12.64,15.41,15.41,0,0,1,11.85-5q7.66,0,11.85,5.09a18.32,18.32,0,0,1,4.22,12ZM522,127.65h12a5.39,5.39,0,0,0-5.65-5,6.07,6.07,0,0,0-6.34,5" transform="translate(-35.69 -32.97)"/><path class="cls-1" d="M568.94,123.91h-1.5c-5.65,0-9.26,3.67-9.26,10.46V148.3H548.5V115H558v3c2-2.31,4.7-3.47,8.31-3.47,1.09,0,2,0,2.59.07Z" transform="translate(-35.69 -32.97)"/><polygon class="cls-1" points="535.93 115.33 535.93 67.7 545.61 67.7 545.61 92.57 554.87 82.03 567.06 82.03 554.73 95.76 567.61 115.33 555.82 115.33 547.85 102.69 545.61 105.14 545.61 115.33 535.93 115.33"/><path class="cls-2" d="M607.89,139a6,6,0,0,1,8.31,0,5.69,5.69,0,0,1,0,8.29,6,6,0,0,1-8.31,0,6.07,6.07,0,0,1,0-8.29" transform="translate(-35.69 -32.97)"/></g><g id="Laag_6" data-name="Laag 6"><path class="cls-3" d="M74.75,53.42a5.1,5.1,0,1,1,10.19,0v25a5.1,5.1,0,1,1-10.19,0Z" transform="translate(-35.69 -32.97)"/><path class="cls-3" d="M89.26,38.26a5.1,5.1,0,1,1,10.19,0V78.38a5.1,5.1,0,1,1-10.19,0Z" transform="translate(-35.69 -32.97)"/><path class="cls-3" d="M137,78.38a5.07,5.07,0,0,1-5.1,5.29,5.27,5.27,0,0,1-4.77-3.27c-2.29,2.81-4.9,3.92-8.75,3.92-8.89,0-15.75-8.17-15.75-18.43s6.86-18.43,15.75-18.43a11.91,11.91,0,0,1,8.43,2.87V38.26a5.1,5.1,0,1,1,10.19,0ZM112.77,65.9c0,4.7,2.49,8.62,7,8.62s7-3.92,7-8.62-2.48-8.63-7-8.63S112.77,61.2,112.77,65.9Z" transform="translate(-35.69 -32.97)"/><path class="cls-3" d="M151.06,69.24c0,2.16,1.63,5.68,8.17,5.68,5,0,8.1-3.2,10.45-3.2a4.23,4.23,0,0,1,4.25,4.38c0,5-8.3,8.23-16,8.23-11,0-17.84-8.17-17.84-18.43,0-9.8,7.38-18.43,17.84-18.43,10.06,0,16.53,8.43,16.53,17.31,0,3.59-1.7,4.44-5,4.44Zm13.2-7a6.62,6.62,0,0,0-13.2,0Z" transform="translate(-35.69 -32.97)"/><path class="cls-3" d="M53.72,84.19C63.57,84.19,70,75.26,70,65.87a19.92,19.92,0,0,0-3.15-11,6.06,6.06,0,1,0-7.63-6.23,17.37,17.37,0,0,0-6.39-1.19c-10.32,0-17.17,8.17-17.17,18.42A18.91,18.91,0,0,0,41.53,80,12.28,12.28,0,0,0,36.16,90.7c0,8.42,7.18,14.56,16.32,14.56,9.53,0,16.45-6.4,16.45-12.67A5.2,5.2,0,0,0,64,87.75c-5.68,0-4.31,7.32-11.62,7.32a5.37,5.37,0,0,1-5.28-5.55C47.13,85.54,50.32,84.25,53.72,84.19ZM45.87,65.87c0-4.7,2.48-8.62,7-8.62s7,3.92,7,8.62-2.48,8.62-7,8.62S45.87,70.56,45.87,65.87Z" transform="translate(-35.69 -32.97)"/></g><g id="opleiding"><path class="cls-2" d="M203,66.37c0,4.5-2.38,8.25-6.68,8.25s-6.69-3.75-6.69-8.25,2.38-8.24,6.69-8.24S203,61.87,203,66.37m9.74,0c0-9.8-6.56-17.61-16.42-17.61S179.9,56.57,179.9,66.37,186.45,84,196.33,84s16.42-7.81,16.42-17.61m20-8.24c-4.31,0-6.68,3.74-6.68,8.24s2.37,8.25,6.68,8.25,6.68-3.75,6.68-8.25-2.37-8.24-6.68-8.24M234.09,84A11.36,11.36,0,0,1,226,81.24V91.79a4.87,4.87,0,1,1-9.74,0V54.44a4.85,4.85,0,0,1,4.87-5.06,5,5,0,0,1,4.56,3.12c2.19-2.69,4.68-3.74,8.36-3.74,8.5,0,15.05,7.81,15.05,17.61S242.58,84,234.09,84m28.66-5.68V41.18a4.87,4.87,0,1,0-9.74,0V78.3a4.87,4.87,0,1,0,9.74,0M283.24,57a6.63,6.63,0,0,0-6.3,5.87h12.61A6.63,6.63,0,0,0,283.24,57m11.31,12.55H276.94c0,2.06,1.56,5.44,7.81,5.44,4.81,0,7.74-3.06,10-3.06a4,4,0,0,1,4.06,4.19c0,4.75-7.93,7.87-15.3,7.87-10.49,0-17-7.81-17-17.61,0-9.37,7.05-17.61,17-17.61,9.62,0,15.81,8.06,15.81,16.55,0,3.44-1.63,4.25-4.75,4.25m18.18,8.74V54.44a4.87,4.87,0,1,0-9.74,0V78.3a4.87,4.87,0,1,0,9.74,0m20.12-20.17c-4.31,0-6.68,3.74-6.68,8.24s2.37,8.25,6.68,8.25,6.68-3.75,6.68-8.25-2.37-8.24-6.68-8.24m11.56,25.23a5,5,0,0,1-4.56-3.12c-2.19,2.68-4.69,3.74-8.38,3.74-8.49,0-15-7.81-15-17.61s6.56-17.61,15-17.61a11.38,11.38,0,0,1,8.06,2.75V41.18a4.87,4.87,0,1,1,9.74,0V78.3a4.84,4.84,0,0,1-4.87,5.06m19.45-5.06V54.44a4.87,4.87,0,1,0-9.74,0V78.3a4.87,4.87,0,1,0,9.74,0m30.36,5.06a4.85,4.85,0,0,1-4.88-5.06V62.87c0-3.37-2-5.87-5.37-5.87s-5.37,2.5-5.37,5.87V78.3a4.87,4.87,0,1,1-9.74,0V54.44a4.84,4.84,0,0,1,4.87-5.06,5.24,5.24,0,0,1,4.87,3.12c1.56-2.43,4.19-3.74,8.37-3.74,6.74,0,12.11,3.5,12.11,11.49v18a4.84,4.84,0,0,1-4.87,5.06m66.68-20.49H448.29a6.32,6.32,0,0,1,12.61,0m9.74,2.44c0-8.49-6.18-16.55-15.8-16.55-10,0-17,8.24-17,17.61,0,9.81,6.56,17.61,17,17.61,7.37,0,15.3-3.12,15.3-7.87a4,4,0,0,0-4.06-4.19c-2.25,0-5.18,3.06-10,3.06-6.25,0-7.81-3.38-7.81-5.44H465.9c3.12,0,4.75-.81,4.75-4.25m29.23,18A4.84,4.84,0,0,1,495,78.3V62.87c0-3.37-2-5.87-5.37-5.87s-5.37,2.5-5.37,5.87V78.3a4.88,4.88,0,1,1-9.75,0V54.44a4.85,4.85,0,0,1,4.87-5.06,5.26,5.26,0,0,1,4.88,3.12c1.55-2.43,4.18-3.74,8.37-3.74,6.74,0,12.11,3.5,12.11,11.49v18a4.85,4.85,0,0,1-4.88,5.06m-74.71-17c0,4.5-2.38,8.26-6.7,8.26s-6.7-3.76-6.7-8.26,2.38-8.26,6.7-8.26,6.7,3.76,6.7,8.26m11-16.12a5.8,5.8,0,0,0-11.59-.39,16.73,16.73,0,0,0-6.13-1.14c-9.89,0-16.46,7.83-16.46,17.65A18.12,18.12,0,0,0,407.62,80a11.77,11.77,0,0,0-5.15,10.21c0,8.07,6.88,14,15.65,14,9.13,0,15.76-6.14,15.76-12.14a5,5,0,0,0-4.69-4.63c-5.44,0-4.13,7-11.14,7A5.14,5.14,0,0,1,413,89.07c0-3.82,3.07-5,6.32-5.11,9.45,0,15.63-8.55,15.63-17.56a19.09,19.09,0,0,0-3-10.53,5.78,5.78,0,0,0,4.28-5.59" transform="translate(-35.69 -32.97)"/></g></svg>